<svg width="236" height="225" viewBox="0 0 236 225" fill="none" xmlns="http://www.w3.org/2000/svg">
<path d="M94.7583 41.8195L98.9583 104.756C99.6807 115.456 103.217 131.045 122.319 129.242C138.758 126.593 142.025 112.451 141.345 102.463C141.017 97.7293 140.757 93.7744 140.757 93.2921C140.757 93.2921 158.8 90.8286 159.035 74.9053C159.153 67.2034 157.935 51.3394 156.641 36.9891C155.962 29.5604 152.144 22.6293 145.945 17.5732C139.746 12.517 131.621 9.70585 123.184 9.69836H121.445C102.722 10.6778 93.1623 25.2804 94.7583 41.8195Z" fill="#FFBF9D"/>
<path d="M140.799 93.3217C140.799 93.3217 129.434 93.9005 117.338 87.1705C117.338 87.1705 123.05 98.8051 141.042 97.3879L140.799 93.3217Z" fill="#FF9A6C"/>
<path d="M126.569 45.4553C126.241 45.7967 124.049 44.4611 121.042 44.5798C118.035 44.6985 115.901 46.1454 115.557 45.8189C115.389 45.6779 115.716 45.0769 116.64 44.4017C117.896 43.5392 119.427 43.0485 121.017 42.9993C122.587 42.9379 124.138 43.3284 125.435 44.1123C126.367 44.7208 126.737 45.2995 126.569 45.4553Z" fill="#263238"/>
<path d="M124.318 53.1647C124.325 53.7258 124.082 54.267 123.643 54.6721C123.203 55.0772 122.601 55.3138 121.966 55.3313C121.655 55.3556 121.342 55.3243 121.046 55.2393C120.749 55.1542 120.475 55.0172 120.24 54.8364C120.004 54.6556 119.813 54.4347 119.676 54.187C119.54 53.9393 119.462 53.6698 119.446 53.3947C119.441 52.8346 119.683 52.2947 120.12 51.889C120.557 51.4834 121.156 51.2437 121.789 51.2206C122.101 51.1974 122.415 51.2296 122.712 51.3154C123.009 51.4012 123.283 51.5389 123.519 51.7202C123.755 51.9015 123.947 52.1227 124.084 52.3709C124.222 52.619 124.301 52.8889 124.318 53.1647V53.1647Z" fill="#263238"/>
<path d="M135.607 63.4266C135.607 63.2856 137.287 63.0259 140.11 62.6846C140.815 62.6178 141.487 62.4916 141.605 62.0687C141.667 61.4224 141.503 60.7747 141.135 60.2137L139.043 55.4575C136.145 48.6756 134.053 43.1032 134.364 43.0067C134.675 42.9102 137.271 48.312 140.169 55.0939C140.866 56.7634 141.538 58.3587 142.168 59.8798C142.615 60.6345 142.743 61.5052 142.529 62.3358C142.427 62.556 142.27 62.7527 142.069 62.9109C141.868 63.0691 141.629 63.1846 141.37 63.2485C140.977 63.3387 140.574 63.3885 140.169 63.3969C137.346 63.5527 135.607 63.5675 135.607 63.4266Z" fill="#263238"/>
<path d="M126.611 37.0559C126.309 37.6421 123.906 37.1375 121.025 37.1968C118.144 37.2562 115.741 37.7608 115.431 37.1968C115.288 36.9223 115.758 36.3881 116.749 35.8835C118.063 35.2717 119.524 34.9484 121.008 34.9411C122.485 34.9031 123.951 35.1859 125.275 35.7648C126.275 36.2545 126.745 36.7813 126.611 37.0559Z" fill="#263238"/>
<path d="M154.13 40.892C153.852 41.3892 151.467 41.0033 148.619 41.1072C145.772 41.2111 143.445 41.686 143.109 41.2037C142.958 40.9736 143.386 40.5136 144.344 40.0684C145.638 39.5125 147.054 39.2112 148.493 39.1854C149.946 39.1334 151.394 39.3534 152.744 39.8309C153.76 40.2168 154.247 40.6546 154.13 40.892Z" fill="#263238"/>
<path d="M96.2115 53.6099C95.9091 53.4986 83.8299 50.3673 84.2079 61.2525C84.5859 72.1376 96.8919 69.5555 96.9003 69.2438C96.9087 68.9322 96.2115 53.6099 96.2115 53.6099Z" fill="#FFBF9D"/>
<path d="M92.9943 65.2222C92.9355 65.2222 92.7843 65.3632 92.4231 65.519C91.9195 65.7266 91.3441 65.7533 90.8187 65.5932C89.4999 65.2073 88.2987 63.4117 88.2147 61.4454C88.1502 60.5134 88.3224 59.5804 88.7187 58.7148C88.8238 58.3743 89.0209 58.0613 89.293 57.8028C89.5651 57.5444 89.9042 57.3481 90.2811 57.2308C90.5254 57.1675 90.7871 57.1809 91.0214 57.2689C91.2558 57.3568 91.4483 57.5138 91.5663 57.7131C91.7427 58.0174 91.6755 58.2325 91.7427 58.2548C91.8099 58.2771 91.9947 58.0619 91.8855 57.6167C91.805 57.3493 91.6244 57.114 91.3731 56.9489C91.2028 56.84 91.0095 56.7622 90.8047 56.7202C90.5998 56.6781 90.3876 56.6726 90.1803 56.704C89.6763 56.8049 89.2104 57.0192 88.8277 57.326C88.4451 57.6328 88.1587 58.0218 87.9963 58.4551C87.5032 59.4099 87.2839 60.4573 87.3579 61.5048C87.5091 63.7308 88.8531 65.7193 90.6507 66.1274C90.9858 66.2007 91.3352 66.2074 91.6736 66.1471C92.0121 66.0868 92.3311 65.961 92.6079 65.7787C92.9775 65.4893 93.0363 65.2444 92.9943 65.2222Z" fill="#FF9A6C"/>
<path d="M78.437 37.0781C80.6882 33.0862 80.915 28.4784 81.965 24.1154C83.015 19.7524 85.325 15.1595 89.9702 13.3638L90.0794 13.4009C94.2122 11.6127 99.4622 11.2565 103.175 13.6458C103.578 7.94721 108.811 3.12421 114.935 1.28405C121.059 -0.556108 131.13 -0.33351 137.279 1.41019C142.033 2.76063 146.779 5.8622 152.617 10.4478C155.083 12.3842 157.364 14.4961 159.438 16.7622L166.066 31.2089L162.051 39.2522C161.815 39.8013 161.572 40.3429 161.269 40.892L158.413 57.5054C157.783 53.0534 156.885 37.5382 156.255 33.0936C152.454 33.236 148.659 32.6981 145.1 31.5122C141.54 30.3264 138.288 28.5171 135.54 26.193C132.567 23.6702 130.122 20.4277 126.3 19.055C121.386 17.2742 115.842 19.1514 110.962 21.0064L111.155 20.8209C108.631 22.0572 106.398 23.7095 104.578 25.6884C106.42 34.4241 106.113 43.4076 103.679 52.0294C103.309 53.3279 102.243 56.014 100.882 56.5779C98.1938 57.6983 97.253 55.2646 95.4806 54.0477C94.1786 53.1573 92.3558 53.1499 90.3734 53.3057C88.6799 49.6808 87.2353 45.969 86.0474 42.1905C84.4154 42.7502 82.6581 42.9661 80.915 42.8212L82.2254 39.3635C81.6036 39.8335 80.8766 40.1824 80.0918 40.3875C79.697 40.4838 79.2782 40.4707 78.8921 40.35C78.506 40.2292 78.1712 40.0066 77.933 39.7122C77.4122 38.9109 77.9666 37.9092 78.437 37.0781Z" fill="#263238"/>
<path d="M108.963 15.1075C108.353 15.5864 107.791 16.1101 107.283 16.6731C105.988 18.2753 105.186 20.1467 104.956 22.1045C104.763 23.4481 104.721 24.8051 104.83 26.1559C104.939 27.6399 105.199 29.1684 105.46 30.8082C105.765 32.528 105.953 34.2625 106.023 36.0022C106.036 36.925 105.974 37.8475 105.838 38.7624C105.759 39.7395 105.397 40.6822 104.788 41.5004C104.501 41.8288 104.123 42.0856 103.69 42.2456C103.257 42.4056 102.784 42.4633 102.318 42.4131C101.427 42.3256 100.593 41.9784 99.9495 41.4262C98.6979 40.3058 98.2695 38.8144 97.8999 37.5085H98.2779C97.8333 38.7372 97.1881 39.902 96.3627 40.9662C95.5611 41.9577 94.3577 42.6381 93.0027 42.8657C92.3723 42.9602 91.7247 42.9012 91.1295 42.6951C90.5734 42.487 90.1038 42.1319 89.7855 41.6785C89.4791 41.2705 89.3074 40.7952 89.2899 40.3058C89.2743 39.8474 89.4407 39.3985 89.7603 39.037L89.9619 39.1706C88.7393 40.6194 87.0968 41.7499 85.2075 42.4428C85.0717 42.4931 84.9311 42.5328 84.7875 42.5615C84.9073 42.4881 85.0371 42.4282 85.1739 42.3834C85.4343 42.2721 85.8207 42.1015 86.2995 41.8492C87.6706 41.1247 88.862 40.1631 89.8023 39.0222L90.0039 39.1631C89.7369 39.5145 89.6008 39.9306 89.6143 40.3536C89.6279 40.7766 89.7905 41.1852 90.0795 41.5227C90.3706 41.9214 90.7927 42.232 91.2891 42.4131C91.8237 42.5957 92.4051 42.6445 92.9691 42.5541C94.2274 42.3249 95.3391 41.68 96.0771 40.751C96.8696 39.7074 97.4864 38.5677 97.9083 37.3675L98.1267 36.8481L98.2947 37.3898C98.6895 38.6957 99.1347 40.1277 100.252 41.0998C100.826 41.5944 101.571 41.9053 102.369 41.9827C102.762 42.0322 103.162 41.9897 103.531 41.8595C103.899 41.7293 104.223 41.5159 104.469 41.2407C105.03 40.4731 105.362 39.5924 105.435 38.6808C105.571 37.7833 105.633 36.8781 105.619 35.9725C105.561 34.2504 105.381 32.533 105.082 30.8305C104.838 29.1907 104.586 27.6325 104.485 26.1559C104.391 24.7836 104.452 23.4064 104.67 22.0452C104.94 20.0513 105.811 18.1578 107.19 16.5618C107.686 15.9937 108.285 15.5022 108.963 15.1075Z" fill="#455A64"/>
<path d="M165.671 26.9869C165.63 27.0274 165.585 27.0646 165.537 27.0983L165.108 27.4173C164.881 27.5935 164.64 27.7547 164.386 27.8996C164.05 28.1094 163.699 28.3003 163.336 28.4709C161.016 29.588 158.418 30.1747 155.776 30.1775C151.839 30.2016 147.979 29.217 144.663 27.3431C140.653 25.0109 137.223 21.9813 134.583 18.4391C133.121 16.6064 131.903 14.7291 130.584 12.9632C129.37 11.2651 127.888 9.72852 126.183 8.39985C124.644 7.20073 122.79 6.36142 120.79 5.95867C119.886 5.79923 118.959 5.76419 118.043 5.85479C117.199 5.95229 116.374 6.14944 115.59 6.44097C113.188 7.34195 111.257 9.00792 110.181 11.1082C109.828 11.8906 109.582 12.7077 109.45 13.5419C109.45 13.5419 109.45 13.49 109.45 13.3787C109.45 13.2674 109.45 13.0819 109.45 12.8889C109.543 12.2609 109.724 11.6454 109.987 11.0562C110.425 10.1295 111.035 9.27417 111.793 8.52598C112.802 7.52769 114.043 6.73305 115.431 6.1961C116.236 5.89153 117.083 5.68197 117.951 5.57283C118.899 5.46611 119.861 5.49618 120.798 5.66186C122.863 6.06154 124.781 6.91381 126.376 8.14015C128.116 9.4817 129.627 11.0387 130.861 12.7628C132.197 14.5139 133.423 16.4135 134.868 18.2239C137.486 21.7298 140.881 24.7309 144.847 27.0463C148.1 28.9088 151.891 29.9055 155.767 29.9178C158.375 29.9339 160.948 29.3943 163.269 28.3448C164.097 27.9318 164.899 27.4784 165.671 26.9869Z" fill="#455A64"/>
<path d="M154.02 44.7133C153.693 45.0546 151.5 43.719 148.493 43.8378C145.486 43.9565 143.352 45.4034 143.008 45.0769C142.84 44.9359 143.168 44.3349 144.092 43.6597C145.347 42.7972 146.878 42.3065 148.468 42.2573C150.038 42.1959 151.589 42.5864 152.886 43.3703C153.844 43.9713 154.188 44.5575 154.02 44.7133Z" fill="#263238"/>
<path d="M149.887 52.6601C149.894 53.2213 149.652 53.7625 149.212 54.1676C148.772 54.5726 148.17 54.8093 147.535 54.8267C147.225 54.851 146.912 54.8197 146.615 54.7347C146.319 54.6497 146.044 54.5127 145.809 54.3318C145.574 54.151 145.382 53.9302 145.246 53.6824C145.11 53.4347 145.031 53.1652 145.015 52.8901C145.011 52.33 145.252 51.7901 145.69 51.3845C146.127 50.9788 146.725 50.7391 147.359 50.7161C147.671 50.6928 147.984 50.7251 148.281 50.8109C148.578 50.8967 148.853 51.0343 149.089 51.2156C149.325 51.3969 149.517 51.6182 149.654 51.8663C149.791 52.1144 149.871 52.3844 149.887 52.6601V52.6601Z" fill="#263238"/>
<path d="M157.775 15.0333C159.455 16.7325 161.883 18.2313 164.378 17.8603C165.277 17.6436 166.156 17.3658 167.007 17.0293C167.914 17.4523 167.889 20.1235 167.334 20.8877C166.804 21.5378 166.211 22.146 165.562 22.7056C168.611 23.9522 171.249 23.1211 174.323 21.9636C174.175 24.3476 173.321 26.6554 171.847 28.6567C170.373 30.6579 168.33 32.2825 165.923 33.3682C164.378 34.036 162.479 34.4589 160.976 33.7095C159.657 33.0491 159.044 31.6838 158.573 30.415C156.841 25.7314 155.772 20.8765 155.39 15.9608L157.775 15.0333Z" fill="#263238"/>
<path d="M150.375 102.181L140.043 98.8125L100.529 97.7811L91.3563 99.9849L92.5575 119.722L113.297 131.409L133.407 131.052L146.057 120.872L148.863 110.788L150.375 102.181Z" fill="#FFBF9D"/>
<path d="M33.1275 132.425C35.5719 127.923 38.3354 123.561 41.4015 119.366C46.2406 112.646 53.8925 107.89 62.6871 106.136L95.8503 98.1967C95.8503 98.1967 98.1015 117.949 120.899 117.949C143.697 117.949 144.167 99.651 144.167 99.651L185.915 113.133C187.234 113.586 196.13 116.309 206.487 135.92C216.348 154.596 220.658 164.116 220.658 164.116L181.278 173.465L178.666 205.601L179.506 223.535L59.5371 223.298L60.2091 202.796L59.6631 168.902L57.1431 173.079L19.6959 159.812C19.6959 159.812 23.4507 150.085 33.1275 132.425Z" fill="#455A64"/>
<path d="M59.1675 151.398C58.9911 151.398 59.1003 162.758 59.4111 176.76C59.7219 190.761 60.1083 202.106 60.2511 202.106C60.3939 202.106 60.3183 190.754 60.0075 176.745C59.6967 162.736 59.3019 151.398 59.1675 151.398Z" fill="#263238"/>
<g opacity="0.3">
<path opacity="0.3" d="M176.003 154.707C174.138 152.897 171.24 152.296 168.527 151.806C137.657 146.204 105.83 148.571 74.5563 152.029C70.6755 152.452 66.3915 153.179 64.0479 155.947C62.3679 157.943 63.4431 160.599 63.2835 163.092C62.4435 175.892 64.3587 189.529 67.2231 202.106L173.752 200.622C177.398 190.872 178.288 174.333 178.338 163.092C178.355 160.124 178.246 156.881 176.003 154.707Z" fill="black"/>
</g>
<path d="M182.933 139.934C182.953 140.094 182.953 140.256 182.933 140.416V141.797C182.933 142.991 182.891 144.72 182.832 146.864C182.715 151.146 182.454 157.06 182.051 163.582C181.648 170.104 181.161 176.01 180.774 180.277C180.573 182.377 180.405 184.083 180.287 185.33C180.22 185.894 180.161 186.346 180.127 186.702C180.119 186.863 180.088 187.023 180.035 187.177C180.013 187.017 180.013 186.855 180.035 186.695C180.035 186.339 180.077 185.886 180.102 185.322C180.195 184.076 180.312 182.354 180.455 180.262C180.749 175.936 181.152 170.059 181.589 163.559C182.026 157.06 182.303 151.131 182.513 146.857C182.614 144.757 182.698 143.036 182.757 141.789C182.757 141.225 182.815 140.773 182.841 140.409C182.852 140.248 182.883 140.089 182.933 139.934V139.934Z" fill="#263238"/>
<path d="M217.281 165.029L233.35 193.529C235.147 196.713 235.989 200.252 235.794 203.806C235.501 209.139 232.894 214.168 228.514 217.848C224.135 221.529 218.319 223.579 212.274 223.572L166.175 221.213L164.167 202.663L199.246 195.191L185.655 172.501L217.281 165.029Z" fill="#FFBF9D"/>
<path d="M199.271 195.161C199.271 195.287 200.867 195.057 203.404 195.072C206.714 195.116 209.996 195.616 213.131 196.556C216.269 197.478 219.211 198.857 221.833 200.637C223.833 202.032 224.773 203.175 224.883 203.093C224.992 203.012 224.723 202.767 224.303 202.24C223.675 201.521 222.969 200.857 222.195 200.259C219.607 198.31 216.614 196.826 213.383 195.888C210.174 194.909 206.789 194.456 203.395 194.553C202.374 194.589 201.358 194.693 200.355 194.864C199.641 195.02 199.254 195.117 199.271 195.161Z" fill="#FF9A6C"/>
<path d="M20.3511 160.124C20.3511 160.124 11.6907 181.501 0.821066 205.29C0.603487 205.771 0.429342 206.267 0.300264 206.774C-1.37974 213.199 4.20627 224.018 11.6571 224.018L74.0775 223.476V205.43L38.0919 198.456L51.9771 171.328L20.3511 160.124Z" fill="#FFBF9D"/>
<path d="M10.103 203.397C10.187 203.486 11.4134 202.655 13.589 201.528C19.28 198.653 25.8195 197.36 32.3546 197.818C34.8746 197.981 36.3782 198.292 36.4118 198.174C36.4454 198.055 36.059 198.01 35.3702 197.832C34.4001 197.598 33.4119 197.427 32.4134 197.32C25.7315 196.591 18.9708 197.943 13.295 201.142C12.4455 201.618 11.6369 202.148 10.8758 202.73C10.3382 203.108 10.0694 203.36 10.103 203.397Z" fill="#FF9A6C"/>
<path d="M173.214 201.55H164.167C164.167 201.55 143.797 195.057 139.614 195.673C135.843 196.237 122.033 204.34 119.328 205.943C119.025 206.121 118.795 206.381 118.673 206.685V206.685C118.411 207.323 118.439 208.026 118.752 208.647C119.066 209.267 119.64 209.755 120.353 210.009L120.639 210.113L120.521 210.476C120.349 210.955 120.278 211.458 120.311 211.96C120.348 212.331 120.517 212.682 120.794 212.962C121.071 213.243 121.442 213.438 121.853 213.521C122.264 213.603 122.694 213.568 123.081 213.421C123.468 213.274 123.792 213.022 124.007 212.702L123.486 213.518C123.275 213.853 123.176 214.234 123.201 214.617L123.251 215.359C123.274 215.761 123.434 216.147 123.712 216.467C123.99 216.786 124.371 217.024 124.805 217.147V217.147C125.218 217.267 125.661 217.279 126.081 217.182C126.502 217.084 126.881 216.881 127.174 216.598C128.929 214.898 132.709 211.485 135.271 211.114C138.058 210.818 140.865 210.694 143.671 210.743C144.24 210.745 144.796 210.898 145.265 211.183C145.734 211.467 146.095 211.87 146.301 212.339V212.339C144.78 212.435 134.196 217.31 130.45 219.054C129.871 219.31 129.372 219.687 128.993 220.15C128.614 220.614 128.368 221.152 128.274 221.717C128.14 222.749 128.728 223.84 131.046 223.357C136.027 222.333 144.982 218.698 144.982 218.698C144.982 218.698 149.593 217.533 152.592 219.395C156.792 222.022 158.724 222.979 162.336 221.918C164.535 221.275 166.644 220.411 168.619 219.343L175.734 218.72C175.734 218.72 182.421 203.828 173.214 201.55Z" fill="#FFBF9D"/>
<path d="M146.326 204.592C146.326 204.659 144.881 204.258 142.495 204.125C139.393 203.941 136.286 204.407 133.426 205.485C130.567 206.563 128.036 208.222 126.04 210.328C124.503 211.938 123.847 213.125 123.772 213.088C123.893 212.799 124.045 212.521 124.225 212.257C124.696 211.525 125.232 210.827 125.83 210.172C127.808 207.987 130.367 206.269 133.279 205.172C136.192 204.074 139.367 203.63 142.521 203.88C143.467 203.953 144.406 204.095 145.326 204.303C145.671 204.364 146.007 204.461 146.326 204.592V204.592Z" fill="#FFBF9D"/>
<path d="M144.167 200.222C142.873 199.876 141.536 199.67 140.185 199.606C136.92 199.601 133.719 200.406 130.945 201.928C128.192 203.487 125.684 205.361 123.486 207.501L121.411 209.393C121.178 209.643 120.916 209.872 120.63 210.076C120.83 209.811 121.054 209.563 121.302 209.333C121.756 208.859 122.411 208.169 123.259 207.337C125.423 205.127 127.939 203.205 130.727 201.631C133.562 200.072 136.855 199.284 140.194 199.368C141.199 199.412 142.193 199.572 143.151 199.843C143.411 199.918 143.666 200.004 143.915 200.103C144.006 200.129 144.091 200.17 144.167 200.222V200.222Z" fill="#FFBF9D"/>
<path d="M60.8475 202.114H69.8691C69.8691 202.114 90.2475 195.614 94.4475 196.237C98.2191 196.794 112.02 204.896 114.725 206.499C115.026 206.68 115.255 206.939 115.38 207.241V207.241C115.645 207.879 115.618 208.584 115.304 209.204C114.99 209.825 114.415 210.313 113.7 210.565L113.415 210.669L113.541 211.033C113.705 211.513 113.776 212.015 113.751 212.517C113.716 212.89 113.548 213.243 113.27 213.526C112.993 213.809 112.62 214.006 112.207 214.088C111.794 214.171 111.361 214.135 110.973 213.986C110.584 213.837 110.26 213.582 110.046 213.259L110.567 214.075C110.776 214.408 110.878 214.785 110.861 215.166L110.811 215.908C110.786 216.311 110.623 216.699 110.344 217.019C110.065 217.34 109.683 217.578 109.248 217.703V217.703C108.836 217.823 108.392 217.836 107.972 217.738C107.552 217.641 107.172 217.438 106.88 217.154C105.132 215.455 101.344 212.042 98.7903 211.671C96.0181 211.369 93.2248 211.245 90.4323 211.3C89.863 211.3 89.3073 211.453 88.8381 211.738C88.3689 212.023 88.0081 212.426 87.8031 212.895V212.895C89.3235 212.991 99.8991 217.866 103.646 219.61C104.225 219.866 104.725 220.242 105.104 220.706C105.483 221.17 105.729 221.708 105.821 222.274C105.964 223.305 105.368 224.389 103.049 223.914C98.0763 222.89 89.1219 219.254 89.1219 219.254C89.1219 219.254 84.5019 218.089 81.5115 219.951C77.3115 222.571 75.3795 223.535 71.7591 222.474C69.5631 221.83 67.4577 220.967 65.4843 219.9L58.3611 219.269C58.3611 219.269 51.6579 204.392 60.8475 202.114Z" fill="#FFBF9D"/>
<path d="M87.7274 205.156C88.9914 204.94 90.2671 204.782 91.5494 204.681C94.6532 204.5 97.7616 204.968 100.622 206.047C103.483 207.126 106.015 208.786 108.013 210.892C109.551 212.502 110.206 213.689 110.273 213.652C110.157 213.361 110.004 213.082 109.819 212.821C109.353 212.089 108.819 211.391 108.223 210.736C106.246 208.551 103.686 206.833 100.774 205.735C97.8615 204.638 94.6865 204.194 91.5326 204.444C90.5827 204.514 89.6413 204.655 88.7186 204.867C88.3767 204.929 88.0441 205.026 87.7274 205.156V205.156Z" fill="#FFBF9D"/>
<path d="M89.9115 200.786C91.2045 200.435 92.542 200.228 93.8931 200.17C97.1581 200.159 100.36 200.962 103.133 202.485C105.889 204.047 108.4 205.923 110.601 208.065L112.642 209.986C112.881 210.232 113.142 210.46 113.423 210.669C113.229 210.404 113.007 210.155 112.759 209.927C112.306 209.445 111.642 208.762 110.794 207.931C108.633 205.72 106.121 203.798 103.335 202.225C100.498 200.662 97.2014 199.874 93.8595 199.962C92.8547 200.006 91.8608 200.166 90.9027 200.437C90.6454 200.511 90.393 200.598 90.1467 200.697C89.9871 200.734 89.9031 200.771 89.9115 200.786Z" fill="#FFBF9D"/>
<path d="M75.1275 224.062H178.733C180.15 224.063 181.513 223.581 182.537 222.715C183.561 221.849 184.166 220.668 184.227 219.417L187.335 156.436C187.368 155.782 187.25 155.128 186.989 154.515C186.729 153.901 186.33 153.341 185.817 152.868C185.305 152.394 184.689 152.017 184.007 151.759C183.325 151.502 182.591 151.369 181.85 151.368H72.2464C71.5058 151.369 70.7729 151.501 70.0917 151.758C69.4105 152.015 68.795 152.39 68.282 152.862C67.7691 153.334 67.3692 153.892 67.1064 154.504C66.8437 155.116 66.7234 155.768 66.7527 156.421L69.6592 219.402C69.7154 220.652 70.3155 221.834 71.3343 222.702C72.3531 223.57 73.712 224.057 75.1275 224.062V224.062Z" fill="#E0E0E0"/>
<path d="M75.1275 224.062H74.8755C74.6221 224.059 74.3694 224.039 74.1195 224.003C73.1368 223.847 72.22 223.46 71.4651 222.882C70.8536 222.409 70.3651 221.824 70.0331 221.169C69.7011 220.513 69.5334 219.802 69.5415 219.083C69.4575 217.401 69.3623 215.47 69.2559 213.288C68.8275 204.562 68.2227 191.948 67.4667 176.366L66.9123 164.131C66.8115 161.999 66.7107 159.83 66.6099 157.623C66.6099 157.06 66.5343 156.525 66.5595 155.939C66.5975 155.357 66.7481 154.785 67.0047 154.247C67.5349 153.152 68.4872 152.258 69.6927 151.725C70.2977 151.455 70.9517 151.282 71.6247 151.213C72.3135 151.161 72.9519 151.213 73.6239 151.213H102.847H178.825H181.345C182.217 151.177 183.088 151.296 183.907 151.561C184.724 151.84 185.458 152.279 186.054 152.847C186.649 153.414 187.09 154.093 187.343 154.834C187.57 155.557 187.642 156.312 187.553 157.06L187.444 159.248C187.368 160.732 187.301 162.165 187.225 163.611C186.94 169.409 186.66 175.112 186.385 180.722C185.831 191.934 185.293 202.759 184.773 213.066C184.714 214.349 184.647 215.633 184.588 216.902L184.487 218.801C184.496 219.451 184.399 220.098 184.201 220.723C183.772 221.988 182.798 223.054 181.488 223.691C180.849 224.003 180.147 224.202 179.422 224.277C178.691 224.344 178.011 224.277 177.313 224.277H161.219H132.331L90.4911 224.211L79.1175 224.166H76.1607C75.4887 224.166 75.1527 224.166 75.1527 224.166H76.1607H79.1175L90.4911 224.121L132.331 224.055H161.219H177.313C178.002 224.055 178.716 224.055 179.371 224.018C180.037 223.942 180.68 223.759 181.27 223.476C182.479 222.893 183.383 221.916 183.79 220.753C183.972 220.16 184.06 219.549 184.05 218.935C184.05 218.304 184.117 217.673 184.143 217.035C184.21 215.759 184.269 214.483 184.336 213.192C184.84 202.885 185.369 192.067 185.915 180.848C186.195 175.239 186.475 169.535 186.755 163.738C186.822 162.288 186.895 160.836 186.973 159.382L187.074 157.156C187.167 156.45 187.104 155.734 186.889 155.049C186.654 154.377 186.25 153.762 185.708 153.248C185.165 152.734 184.498 152.335 183.756 152.081C182.993 151.834 182.182 151.728 181.371 151.769H178.851H102.873H73.6407C72.9855 151.769 72.3051 151.769 71.6919 151.769C71.0662 151.83 70.4577 151.989 69.8943 152.237C68.7641 152.723 67.8697 153.553 67.3743 154.574C67.1351 155.071 66.9931 155.6 66.9543 156.139C66.9543 156.674 66.9543 157.245 66.9963 157.794C67.0971 160.005 67.1951 162.174 67.2903 164.301C67.4835 168.553 67.6683 172.642 67.8447 176.537C68.5251 192.119 69.0795 204.733 69.4659 213.466C69.5583 215.648 69.6339 217.584 69.7095 219.261C69.6988 219.96 69.8574 220.652 70.1747 221.292C70.492 221.932 70.9606 222.505 71.5491 222.971C72.2823 223.551 73.1789 223.946 74.1447 224.114C74.8083 224.07 75.1275 224.04 75.1275 224.062Z" fill="#263238"/>
<path d="M121.378 188.825C121.376 189.817 121.708 190.787 122.331 191.613C122.954 192.439 123.84 193.083 124.877 193.464C125.915 193.845 127.057 193.945 128.159 193.752C129.261 193.56 130.274 193.083 131.068 192.381C131.863 191.68 132.405 190.786 132.625 189.813C132.845 188.84 132.733 187.831 132.303 186.914C131.874 185.997 131.146 185.213 130.212 184.662C129.278 184.11 128.18 183.816 127.056 183.816C125.552 183.816 124.109 184.343 123.044 185.283C121.979 186.222 121.38 187.496 121.378 188.825Z" fill="white"/>
<path d="M136.632 72.2786C136.632 72.3676 135.977 72.6273 134.784 72.6199C133.22 72.5956 131.707 72.1219 130.475 71.2704C129.243 70.4189 128.358 69.236 127.955 67.9008C127.661 66.8842 127.779 66.2387 127.879 66.2313C127.98 66.2238 128.123 66.8397 128.543 67.7153C129.054 68.8713 129.908 69.8844 131.015 70.6482C132.122 71.412 133.441 71.8983 134.835 72.056C135.91 72.2192 136.615 72.1599 136.632 72.2786Z" fill="#263238"/>
</svg>
